<mxfile host="app.diagrams.net" agent="Mozilla/5.0 (Windows NT 10.0; Win64; x64; rv:140.0) Gecko/20100101 Firefox/140.0" version="28.0.9" pages="2">
  <diagram name="Evaluationsbereich" id="bFeAZyRayFYzndqzg-Td">
    <mxGraphModel dx="1426" dy="745" grid="1" gridSize="10" guides="1" tooltips="1" connect="1" arrows="1" fold="1" page="1" pageScale="1" pageWidth="827" pageHeight="1169" math="0" shadow="0">
      <root>
        <mxCell id="0" />
        <mxCell id="1" parent="0" />
        <mxCell id="QAIENvD28hbBHRoYnTSa-1" value="&lt;h1&gt;&lt;b style=&quot;&quot;&gt;&lt;font face=&quot;Verdana&quot; style=&quot;font-size: 24px;&quot;&gt;Evaluationsbereich&lt;/font&gt;&lt;/b&gt;&lt;span style=&quot;color: rgb(77, 77, 77);&quot;&gt;.&lt;/span&gt;&amp;nbsp;&lt;/h1&gt;" style="rounded=0;whiteSpace=wrap;html=1;fillColor=#dae8fc;strokeColor=#6c8ebf;sketch=1;curveFitting=1;jiggle=2;fontColor=#008CFF;" vertex="1" parent="1">
          <mxGeometry x="10" y="20" width="370" height="60" as="geometry" />
        </mxCell>
        <mxCell id="QAIENvD28hbBHRoYnTSa-2" value="&#xa;&lt;div&gt;&lt;span data-mx-given-colors=&quot;{&amp;quot;color&amp;quot;:&amp;quot;rgb(77, 77, 77)&amp;quot;}&quot; style=&quot;color: generic-light-dark(rgb(77, 77, 77), rgb(171, 171, 171));&quot;&gt;Bereich&#xa; in dem Evaluations:koordinierende Fragebögen anlegen können, diese &#xa;verwalten und die zu evaluierende Lehrveranstaltungen einsehen können. &#xa;Es gibt einen Evaluationsbereich je Koordinator (von der Fakultät &#xa;beauftragt). Key User des Dezernats können ebenfalls auf diese Bereiche &#xa;zugreifen.&lt;/span&gt;&amp;nbsp;&lt;/div&gt;&#xa;&#xa;" style="rounded=1;whiteSpace=wrap;html=1;fillColor=#dae8fc;strokeColor=#6c8ebf;sketch=1;curveFitting=1;jiggle=2;align=center;" vertex="1" parent="1">
          <mxGeometry x="20" y="90" width="280" height="180" as="geometry" />
        </mxCell>
        <mxCell id="QAIENvD28hbBHRoYnTSa-3" value="&lt;font face=&quot;Verdana&quot;&gt;&lt;b&gt;Fragebogenverwaltung und Erstellung&lt;/b&gt;&lt;/font&gt;" style="rounded=0;whiteSpace=wrap;html=1;fillColor=#dae8fc;strokeColor=#6c8ebf;sketch=1;curveFitting=1;jiggle=2;" vertex="1" parent="1">
          <mxGeometry x="850" y="350" width="250" height="50" as="geometry" />
        </mxCell>
      </root>
    </mxGraphModel>
  </diagram>
  <diagram id="i5fRMX3bDrgT3CYCGFqA" name="Fragebögen">
    <mxGraphModel dx="1678" dy="876" grid="1" gridSize="10" guides="1" tooltips="1" connect="1" arrows="1" fold="1" page="1" pageScale="1" pageWidth="827" pageHeight="1169" math="0" shadow="0">
      <root>
        <mxCell id="0" />
        <mxCell id="1" parent="0" />
        <mxCell id="W_2epq7IKHOyBFfJu-2j-45" value="" style="rounded=0;whiteSpace=wrap;html=1;" vertex="1" parent="1">
          <mxGeometry x="130" y="115" width="860" height="385" as="geometry" />
        </mxCell>
        <mxCell id="7l6I9ZnIz1sRPXKififV-1" value="&lt;b&gt;&lt;font face=&quot;Verdana&quot; style=&quot;font-size: 19px;&quot;&gt;Fragebogenübersicht&lt;/font&gt;&lt;/b&gt;" style="rounded=0;whiteSpace=wrap;html=1;fillColor=#dae8fc;strokeColor=#6c8ebf;sketch=1;curveFitting=1;jiggle=2;" vertex="1" parent="1">
          <mxGeometry x="40" y="40" width="250" height="50" as="geometry" />
        </mxCell>
        <mxCell id="W_2epq7IKHOyBFfJu-2j-3" value="Fragebogentyp" style="text;html=1;align=center;verticalAlign=middle;whiteSpace=wrap;rounded=0;fontStyle=1" vertex="1" parent="1">
          <mxGeometry x="200" y="260" width="70" height="34" as="geometry" />
        </mxCell>
        <mxCell id="W_2epq7IKHOyBFfJu-2j-4" value="" style="endArrow=none;html=1;rounded=0;" edge="1" parent="1">
          <mxGeometry width="50" height="50" relative="1" as="geometry">
            <mxPoint x="190" y="300" as="sourcePoint" />
            <mxPoint x="920" y="300" as="targetPoint" />
          </mxGeometry>
        </mxCell>
        <mxCell id="W_2epq7IKHOyBFfJu-2j-5" value="Notiz" style="text;html=1;align=center;verticalAlign=middle;whiteSpace=wrap;rounded=0;fontStyle=1" vertex="1" parent="1">
          <mxGeometry x="480" y="260" width="70" height="34" as="geometry" />
        </mxCell>
        <mxCell id="W_2epq7IKHOyBFfJu-2j-6" value="Bearbeiten" style="text;html=1;align=center;verticalAlign=middle;whiteSpace=wrap;rounded=0;fontStyle=1" vertex="1" parent="1">
          <mxGeometry x="670" y="260" width="70" height="34" as="geometry" />
        </mxCell>
        <mxCell id="W_2epq7IKHOyBFfJu-2j-7" value="" style="shape=table;startSize=0;container=1;collapsible=0;childLayout=tableLayout;strokeColor=light-dark(#FFFFFF,#EDEDED);" vertex="1" parent="1">
          <mxGeometry x="191" y="300" width="729" height="160" as="geometry" />
        </mxCell>
        <mxCell id="W_2epq7IKHOyBFfJu-2j-8" value="" style="shape=tableRow;horizontal=0;startSize=0;swimlaneHead=0;swimlaneBody=0;strokeColor=inherit;top=0;left=0;bottom=0;right=0;collapsible=0;dropTarget=0;fillColor=none;points=[[0,0.5],[1,0.5]];portConstraint=eastwest;" vertex="1" parent="W_2epq7IKHOyBFfJu-2j-7">
          <mxGeometry width="729" height="40" as="geometry" />
        </mxCell>
        <mxCell id="W_2epq7IKHOyBFfJu-2j-9" value="Vorlesung" style="shape=partialRectangle;html=1;whiteSpace=wrap;connectable=0;strokeColor=light-dark(#ffffff, #959595);overflow=hidden;fillColor=#f5f5f5;top=0;left=0;bottom=0;right=0;pointerEvents=1;fontColor=#333333;align=left;" vertex="1" parent="W_2epq7IKHOyBFfJu-2j-8">
          <mxGeometry width="243" height="40" as="geometry">
            <mxRectangle width="243" height="40" as="alternateBounds" />
          </mxGeometry>
        </mxCell>
        <mxCell id="W_2epq7IKHOyBFfJu-2j-10" value="" style="shape=partialRectangle;html=1;whiteSpace=wrap;connectable=0;strokeColor=#666666;overflow=hidden;fillColor=#f5f5f5;top=0;left=0;bottom=0;right=0;pointerEvents=1;fontColor=#333333;" vertex="1" parent="W_2epq7IKHOyBFfJu-2j-8">
          <mxGeometry x="243" width="243" height="40" as="geometry">
            <mxRectangle width="243" height="40" as="alternateBounds" />
          </mxGeometry>
        </mxCell>
        <mxCell id="W_2epq7IKHOyBFfJu-2j-11" value="" style="shape=partialRectangle;html=1;whiteSpace=wrap;connectable=0;strokeColor=#666666;overflow=hidden;fillColor=#f5f5f5;top=0;left=0;bottom=0;right=0;pointerEvents=1;fontColor=#333333;" vertex="1" parent="W_2epq7IKHOyBFfJu-2j-8">
          <mxGeometry x="486" width="243" height="40" as="geometry">
            <mxRectangle width="243" height="40" as="alternateBounds" />
          </mxGeometry>
        </mxCell>
        <mxCell id="W_2epq7IKHOyBFfJu-2j-12" value="" style="shape=tableRow;horizontal=0;startSize=0;swimlaneHead=0;swimlaneBody=0;strokeColor=inherit;top=0;left=0;bottom=0;right=0;collapsible=0;dropTarget=0;fillColor=none;points=[[0,0.5],[1,0.5]];portConstraint=eastwest;swimlaneFillColor=#FFFFFF;" vertex="1" parent="W_2epq7IKHOyBFfJu-2j-7">
          <mxGeometry y="40" width="729" height="40" as="geometry" />
        </mxCell>
        <mxCell id="W_2epq7IKHOyBFfJu-2j-13" value="&lt;div align=&quot;left&quot;&gt;Seminar&lt;/div&gt;" style="shape=partialRectangle;html=1;whiteSpace=wrap;connectable=0;strokeColor=inherit;overflow=hidden;fillColor=none;top=0;left=0;bottom=0;right=0;pointerEvents=1;swimlaneFillColor=#FFFFFF;align=left;" vertex="1" parent="W_2epq7IKHOyBFfJu-2j-12">
          <mxGeometry width="243" height="40" as="geometry">
            <mxRectangle width="243" height="40" as="alternateBounds" />
          </mxGeometry>
        </mxCell>
        <mxCell id="W_2epq7IKHOyBFfJu-2j-14" value="" style="shape=partialRectangle;html=1;whiteSpace=wrap;connectable=0;strokeColor=inherit;overflow=hidden;fillColor=none;top=0;left=0;bottom=0;right=0;pointerEvents=1;swimlaneFillColor=#FFFFFF;" vertex="1" parent="W_2epq7IKHOyBFfJu-2j-12">
          <mxGeometry x="243" width="243" height="40" as="geometry">
            <mxRectangle width="243" height="40" as="alternateBounds" />
          </mxGeometry>
        </mxCell>
        <mxCell id="W_2epq7IKHOyBFfJu-2j-15" value="" style="shape=partialRectangle;html=1;whiteSpace=wrap;connectable=0;strokeColor=inherit;overflow=hidden;fillColor=none;top=0;left=0;bottom=0;right=0;pointerEvents=1;swimlaneFillColor=#FFFFFF;" vertex="1" parent="W_2epq7IKHOyBFfJu-2j-12">
          <mxGeometry x="486" width="243" height="40" as="geometry">
            <mxRectangle width="243" height="40" as="alternateBounds" />
          </mxGeometry>
        </mxCell>
        <mxCell id="W_2epq7IKHOyBFfJu-2j-16" value="" style="shape=tableRow;horizontal=0;startSize=0;swimlaneHead=0;swimlaneBody=0;strokeColor=inherit;top=0;left=0;bottom=0;right=0;collapsible=0;dropTarget=0;fillColor=none;points=[[0,0.5],[1,0.5]];portConstraint=eastwest;swimlaneFillColor=#FFFFFF;" vertex="1" parent="W_2epq7IKHOyBFfJu-2j-7">
          <mxGeometry y="80" width="729" height="40" as="geometry" />
        </mxCell>
        <mxCell id="W_2epq7IKHOyBFfJu-2j-17" value="Projekt" style="shape=partialRectangle;html=1;whiteSpace=wrap;connectable=0;strokeColor=#666666;overflow=hidden;fillColor=#f5f5f5;top=0;left=0;bottom=0;right=0;pointerEvents=1;fontColor=#333333;swimlaneFillColor=#FFFFFF;align=left;" vertex="1" parent="W_2epq7IKHOyBFfJu-2j-16">
          <mxGeometry width="243" height="40" as="geometry">
            <mxRectangle width="243" height="40" as="alternateBounds" />
          </mxGeometry>
        </mxCell>
        <mxCell id="W_2epq7IKHOyBFfJu-2j-18" value="" style="shape=partialRectangle;html=1;whiteSpace=wrap;connectable=0;strokeColor=#666666;overflow=hidden;fillColor=#f5f5f5;top=0;left=0;bottom=0;right=0;pointerEvents=1;fontColor=#333333;swimlaneFillColor=#FFFFFF;" vertex="1" parent="W_2epq7IKHOyBFfJu-2j-16">
          <mxGeometry x="243" width="243" height="40" as="geometry">
            <mxRectangle width="243" height="40" as="alternateBounds" />
          </mxGeometry>
        </mxCell>
        <mxCell id="W_2epq7IKHOyBFfJu-2j-19" value="" style="shape=partialRectangle;html=1;whiteSpace=wrap;connectable=0;strokeColor=#666666;overflow=hidden;fillColor=#f5f5f5;top=0;left=0;bottom=0;right=0;pointerEvents=1;fontColor=#333333;swimlaneFillColor=#FFFFFF;" vertex="1" parent="W_2epq7IKHOyBFfJu-2j-16">
          <mxGeometry x="486" width="243" height="40" as="geometry">
            <mxRectangle width="243" height="40" as="alternateBounds" />
          </mxGeometry>
        </mxCell>
        <mxCell id="W_2epq7IKHOyBFfJu-2j-20" value="" style="shape=tableRow;horizontal=0;startSize=0;swimlaneHead=0;swimlaneBody=0;strokeColor=inherit;top=0;left=0;bottom=0;right=0;collapsible=0;dropTarget=0;fillColor=none;points=[[0,0.5],[1,0.5]];portConstraint=eastwest;swimlaneFillColor=#FFFFFF;" vertex="1" parent="W_2epq7IKHOyBFfJu-2j-7">
          <mxGeometry y="120" width="729" height="40" as="geometry" />
        </mxCell>
        <mxCell id="W_2epq7IKHOyBFfJu-2j-21" value="..." style="shape=partialRectangle;html=1;whiteSpace=wrap;connectable=0;strokeColor=inherit;overflow=hidden;fillColor=none;top=0;left=0;bottom=0;right=0;pointerEvents=1;swimlaneFillColor=#FFFFFF;align=left;" vertex="1" parent="W_2epq7IKHOyBFfJu-2j-20">
          <mxGeometry width="243" height="40" as="geometry">
            <mxRectangle width="243" height="40" as="alternateBounds" />
          </mxGeometry>
        </mxCell>
        <mxCell id="W_2epq7IKHOyBFfJu-2j-22" value="" style="shape=partialRectangle;html=1;whiteSpace=wrap;connectable=0;strokeColor=inherit;overflow=hidden;fillColor=none;top=0;left=0;bottom=0;right=0;pointerEvents=1;swimlaneFillColor=#FFFFFF;" vertex="1" parent="W_2epq7IKHOyBFfJu-2j-20">
          <mxGeometry x="243" width="243" height="40" as="geometry">
            <mxRectangle width="243" height="40" as="alternateBounds" />
          </mxGeometry>
        </mxCell>
        <mxCell id="W_2epq7IKHOyBFfJu-2j-23" value="" style="shape=partialRectangle;html=1;whiteSpace=wrap;connectable=0;strokeColor=inherit;overflow=hidden;fillColor=none;top=0;left=0;bottom=0;right=0;pointerEvents=1;swimlaneFillColor=#FFFFFF;" vertex="1" parent="W_2epq7IKHOyBFfJu-2j-20">
          <mxGeometry x="486" width="243" height="40" as="geometry">
            <mxRectangle width="243" height="40" as="alternateBounds" />
          </mxGeometry>
        </mxCell>
        <mxCell id="W_2epq7IKHOyBFfJu-2j-24" value="" style="shape=image;html=1;verticalAlign=top;verticalLabelPosition=bottom;labelBackgroundColor=#ffffff;imageAspect=0;aspect=fixed;image=https://icons.diagrams.net/icon-cache1/Material_Core-2642/create-1100.svg;sketch=1;curveFitting=1;jiggle=2;fontColor=#008CFF;strokeColor=#008CFF;" vertex="1" parent="1">
          <mxGeometry x="698.4499999999998" y="310" width="18" height="18" as="geometry" />
        </mxCell>
        <mxCell id="W_2epq7IKHOyBFfJu-2j-25" value="" style="shape=image;html=1;verticalAlign=top;verticalLabelPosition=bottom;labelBackgroundColor=#ffffff;imageAspect=0;aspect=fixed;image=https://icons.diagrams.net/icon-cache1/Material_Core-2642/create-1100.svg;sketch=1;curveFitting=1;jiggle=2;fontColor=#008CFF;strokeColor=#008CFF;" vertex="1" parent="1">
          <mxGeometry x="696" y="390" width="18" height="18" as="geometry" />
        </mxCell>
        <mxCell id="W_2epq7IKHOyBFfJu-2j-26" value="" style="shape=image;html=1;verticalAlign=top;verticalLabelPosition=bottom;labelBackgroundColor=#ffffff;imageAspect=0;aspect=fixed;image=https://icons.diagrams.net/icon-cache1/Material_Core-2642/create-1100.svg;sketch=1;curveFitting=1;jiggle=2;fontColor=#008CFF;strokeColor=#008CFF;" vertex="1" parent="1">
          <mxGeometry x="696" y="350" width="18" height="18" as="geometry" />
        </mxCell>
        <mxCell id="W_2epq7IKHOyBFfJu-2j-27" value="" style="shape=image;html=1;verticalAlign=top;verticalLabelPosition=bottom;labelBackgroundColor=#ffffff;imageAspect=0;aspect=fixed;image=https://icons.diagrams.net/icon-cache1/Material_Core-2642/create-1100.svg;sketch=1;curveFitting=1;jiggle=2;fontColor=#008CFF;strokeColor=#008CFF;" vertex="1" parent="1">
          <mxGeometry x="696" y="430" width="18" height="18" as="geometry" />
        </mxCell>
        <mxCell id="W_2epq7IKHOyBFfJu-2j-32" value="Freigabe" style="text;html=1;align=center;verticalAlign=middle;whiteSpace=wrap;rounded=0;fontStyle=1" vertex="1" parent="1">
          <mxGeometry x="810" y="260" width="70" height="34" as="geometry" />
        </mxCell>
        <mxCell id="W_2epq7IKHOyBFfJu-2j-33" value="" style="html=1;verticalLabelPosition=bottom;align=center;labelBackgroundColor=#ffffff;verticalAlign=top;strokeWidth=2;strokeColor=#CCCCCC;shadow=0;dashed=0;shape=mxgraph.ios7.icons.eye;" vertex="1" parent="1">
          <mxGeometry x="830" y="310" width="30" height="14.1" as="geometry" />
        </mxCell>
        <mxCell id="W_2epq7IKHOyBFfJu-2j-34" value="" style="html=1;verticalLabelPosition=bottom;align=center;labelBackgroundColor=#ffffff;verticalAlign=top;strokeWidth=2;strokeColor=#CCCCCC;shadow=0;dashed=0;shape=mxgraph.ios7.icons.eye;" vertex="1" parent="1">
          <mxGeometry x="830" y="430" width="30" height="14.1" as="geometry" />
        </mxCell>
        <mxCell id="W_2epq7IKHOyBFfJu-2j-35" value="" style="html=1;verticalLabelPosition=bottom;align=center;labelBackgroundColor=#ffffff;verticalAlign=top;strokeWidth=2;strokeColor=#CCCCCC;shadow=0;dashed=0;shape=mxgraph.ios7.icons.eye;" vertex="1" parent="1">
          <mxGeometry x="830" y="351.95" width="30" height="14.1" as="geometry" />
        </mxCell>
        <mxCell id="W_2epq7IKHOyBFfJu-2j-36" value="" style="html=1;verticalLabelPosition=bottom;align=center;labelBackgroundColor=#ffffff;verticalAlign=top;strokeWidth=2;strokeColor=#CCCCCC;shadow=0;dashed=0;shape=mxgraph.ios7.icons.eye;" vertex="1" parent="1">
          <mxGeometry x="830" y="390" width="30" height="14.1" as="geometry" />
        </mxCell>
        <mxCell id="W_2epq7IKHOyBFfJu-2j-39" value="" style="endArrow=none;html=1;rounded=0;entryX=0.927;entryY=0.075;entryDx=0;entryDy=0;entryPerimeter=0;exitX=0.167;exitY=1.067;exitDx=0;exitDy=0;exitPerimeter=0;strokeWidth=4;strokeColor=#CCCCCC;" edge="1" parent="1" source="W_2epq7IKHOyBFfJu-2j-35" target="W_2epq7IKHOyBFfJu-2j-12">
          <mxGeometry width="50" height="50" relative="1" as="geometry">
            <mxPoint x="820" y="384" as="sourcePoint" />
            <mxPoint x="850" y="350" as="targetPoint" />
          </mxGeometry>
        </mxCell>
        <mxCell id="W_2epq7IKHOyBFfJu-2j-41" value="to do: Fragetypen bestimmen | ENtscheidung verschiedene Fragetypen fest anbieten oder selbständig anlegen neuer Fragetypen" style="shape=note;whiteSpace=wrap;html=1;backgroundOutline=1;darkOpacity=0.05;fillColor=#f5f5f5;strokeColor=#666666;fontColor=#333333;sketch=1;curveFitting=1;jiggle=2;" vertex="1" parent="1">
          <mxGeometry x="800" y="560" width="220" height="100" as="geometry" />
        </mxCell>
        <mxCell id="W_2epq7IKHOyBFfJu-2j-43" value="" style="endArrow=none;html=1;rounded=0;strokeWidth=1;" edge="1" parent="1">
          <mxGeometry width="50" height="50" relative="1" as="geometry">
            <mxPoint x="150" y="180" as="sourcePoint" />
            <mxPoint x="930" y="180" as="targetPoint" />
          </mxGeometry>
        </mxCell>
        <mxCell id="W_2epq7IKHOyBFfJu-2j-44" value="&lt;font style=&quot;font-size: 18px;&quot; face=&quot;Verdana&quot;&gt;&lt;b&gt;Fragebögen&lt;/b&gt;&lt;/font&gt;" style="text;html=1;align=center;verticalAlign=middle;whiteSpace=wrap;rounded=0;" vertex="1" parent="1">
          <mxGeometry x="170.5" y="130" width="60" height="30" as="geometry" />
        </mxCell>
        <mxCell id="W_2epq7IKHOyBFfJu-2j-46" value="&lt;font face=&quot;Verdana&quot; style=&quot;font-size: 18px;&quot;&gt;&lt;b&gt;Fragebogen Erstellung | Bearbeitung&lt;/b&gt;&lt;/font&gt;" style="rounded=0;whiteSpace=wrap;html=1;fillColor=#dae8fc;strokeColor=#6c8ebf;sketch=1;curveFitting=1;jiggle=2;" vertex="1" parent="1">
          <mxGeometry x="40" y="550" width="330" height="50" as="geometry" />
        </mxCell>
        <mxCell id="W_2epq7IKHOyBFfJu-2j-47" value="Fragetyp" style="rounded=1;whiteSpace=wrap;html=1;fillColor=#dae8fc;strokeColor=#6c8ebf;sketch=1;curveFitting=1;jiggle=2;" vertex="1" parent="1">
          <mxGeometry x="1120" y="670" width="100" height="40" as="geometry" />
        </mxCell>
        <mxCell id="W_2epq7IKHOyBFfJu-2j-48" value="&lt;font face=&quot;Verdana&quot; style=&quot;font-size: 18px;&quot;&gt;&lt;b&gt;Fragetypen&lt;/b&gt;&lt;/font&gt;" style="rounded=0;whiteSpace=wrap;html=1;fillColor=#dae8fc;strokeColor=#6c8ebf;sketch=1;curveFitting=1;jiggle=2;" vertex="1" parent="1">
          <mxGeometry x="1070" y="585" width="270" height="50" as="geometry" />
        </mxCell>
        <mxCell id="W_2epq7IKHOyBFfJu-2j-49" value="Versionierung | Sortierung der Fragebögen??" style="shape=note;whiteSpace=wrap;html=1;backgroundOutline=1;darkOpacity=0.05;fillColor=#f5f5f5;strokeColor=#666666;fontColor=#333333;sketch=1;curveFitting=1;jiggle=2;" vertex="1" parent="1">
          <mxGeometry x="1000" y="115" width="220" height="100" as="geometry" />
        </mxCell>
        <mxCell id="W_2epq7IKHOyBFfJu-2j-50" value="To do: Verwaltungsbereich für Dezernat | --&amp;gt; Fragebogenteile erstellen | Koordinator wählt Teile aus und stellt sie zusammen&amp;nbsp;" style="shape=note;whiteSpace=wrap;html=1;backgroundOutline=1;darkOpacity=0.05;fillColor=#f5f5f5;strokeColor=#666666;fontColor=#333333;sketch=1;curveFitting=1;jiggle=2;" vertex="1" parent="1">
          <mxGeometry x="570" y="560" width="220" height="100" as="geometry" />
        </mxCell>
        <mxCell id="W_2epq7IKHOyBFfJu-2j-51" value="" style="rounded=0;whiteSpace=wrap;html=1;" vertex="1" parent="1">
          <mxGeometry x="170" y="850" width="860" height="385" as="geometry" />
        </mxCell>
        <mxCell id="W_2epq7IKHOyBFfJu-2j-52" value="Fragebogentyp" style="text;html=1;align=center;verticalAlign=middle;whiteSpace=wrap;rounded=0;fontStyle=1" vertex="1" parent="1">
          <mxGeometry x="240" y="995" width="70" height="34" as="geometry" />
        </mxCell>
        <mxCell id="W_2epq7IKHOyBFfJu-2j-53" value="" style="endArrow=none;html=1;rounded=0;" edge="1" parent="1">
          <mxGeometry width="50" height="50" relative="1" as="geometry">
            <mxPoint x="230" y="1035" as="sourcePoint" />
            <mxPoint x="960" y="1035" as="targetPoint" />
          </mxGeometry>
        </mxCell>
        <mxCell id="W_2epq7IKHOyBFfJu-2j-54" value="Notiz" style="text;html=1;align=center;verticalAlign=middle;whiteSpace=wrap;rounded=0;fontStyle=1" vertex="1" parent="1">
          <mxGeometry x="520" y="995" width="70" height="34" as="geometry" />
        </mxCell>
        <mxCell id="W_2epq7IKHOyBFfJu-2j-55" value="Bearbeiten" style="text;html=1;align=center;verticalAlign=middle;whiteSpace=wrap;rounded=0;fontStyle=1" vertex="1" parent="1">
          <mxGeometry x="710" y="995" width="70" height="34" as="geometry" />
        </mxCell>
        <mxCell id="W_2epq7IKHOyBFfJu-2j-56" value="" style="shape=table;startSize=0;container=1;collapsible=0;childLayout=tableLayout;strokeColor=light-dark(#FFFFFF,#EDEDED);" vertex="1" parent="1">
          <mxGeometry x="231" y="1035" width="729" height="160" as="geometry" />
        </mxCell>
        <mxCell id="W_2epq7IKHOyBFfJu-2j-57" value="" style="shape=tableRow;horizontal=0;startSize=0;swimlaneHead=0;swimlaneBody=0;strokeColor=inherit;top=0;left=0;bottom=0;right=0;collapsible=0;dropTarget=0;fillColor=none;points=[[0,0.5],[1,0.5]];portConstraint=eastwest;" vertex="1" parent="W_2epq7IKHOyBFfJu-2j-56">
          <mxGeometry width="729" height="40" as="geometry" />
        </mxCell>
        <mxCell id="W_2epq7IKHOyBFfJu-2j-58" value="Vorlesung" style="shape=partialRectangle;html=1;whiteSpace=wrap;connectable=0;strokeColor=light-dark(#ffffff, #959595);overflow=hidden;fillColor=#f5f5f5;top=0;left=0;bottom=0;right=0;pointerEvents=1;fontColor=#333333;align=left;" vertex="1" parent="W_2epq7IKHOyBFfJu-2j-57">
          <mxGeometry width="243" height="40" as="geometry">
            <mxRectangle width="243" height="40" as="alternateBounds" />
          </mxGeometry>
        </mxCell>
        <mxCell id="W_2epq7IKHOyBFfJu-2j-59" value="" style="shape=partialRectangle;html=1;whiteSpace=wrap;connectable=0;strokeColor=#666666;overflow=hidden;fillColor=#f5f5f5;top=0;left=0;bottom=0;right=0;pointerEvents=1;fontColor=#333333;" vertex="1" parent="W_2epq7IKHOyBFfJu-2j-57">
          <mxGeometry x="243" width="243" height="40" as="geometry">
            <mxRectangle width="243" height="40" as="alternateBounds" />
          </mxGeometry>
        </mxCell>
        <mxCell id="W_2epq7IKHOyBFfJu-2j-60" value="" style="shape=partialRectangle;html=1;whiteSpace=wrap;connectable=0;strokeColor=#666666;overflow=hidden;fillColor=#f5f5f5;top=0;left=0;bottom=0;right=0;pointerEvents=1;fontColor=#333333;" vertex="1" parent="W_2epq7IKHOyBFfJu-2j-57">
          <mxGeometry x="486" width="243" height="40" as="geometry">
            <mxRectangle width="243" height="40" as="alternateBounds" />
          </mxGeometry>
        </mxCell>
        <mxCell id="W_2epq7IKHOyBFfJu-2j-61" value="" style="shape=tableRow;horizontal=0;startSize=0;swimlaneHead=0;swimlaneBody=0;strokeColor=inherit;top=0;left=0;bottom=0;right=0;collapsible=0;dropTarget=0;fillColor=none;points=[[0,0.5],[1,0.5]];portConstraint=eastwest;swimlaneFillColor=#FFFFFF;" vertex="1" parent="W_2epq7IKHOyBFfJu-2j-56">
          <mxGeometry y="40" width="729" height="40" as="geometry" />
        </mxCell>
        <mxCell id="W_2epq7IKHOyBFfJu-2j-62" value="&lt;div align=&quot;left&quot;&gt;Seminar&lt;/div&gt;" style="shape=partialRectangle;html=1;whiteSpace=wrap;connectable=0;strokeColor=inherit;overflow=hidden;fillColor=none;top=0;left=0;bottom=0;right=0;pointerEvents=1;swimlaneFillColor=#FFFFFF;align=left;" vertex="1" parent="W_2epq7IKHOyBFfJu-2j-61">
          <mxGeometry width="243" height="40" as="geometry">
            <mxRectangle width="243" height="40" as="alternateBounds" />
          </mxGeometry>
        </mxCell>
        <mxCell id="W_2epq7IKHOyBFfJu-2j-63" value="" style="shape=partialRectangle;html=1;whiteSpace=wrap;connectable=0;strokeColor=inherit;overflow=hidden;fillColor=none;top=0;left=0;bottom=0;right=0;pointerEvents=1;swimlaneFillColor=#FFFFFF;" vertex="1" parent="W_2epq7IKHOyBFfJu-2j-61">
          <mxGeometry x="243" width="243" height="40" as="geometry">
            <mxRectangle width="243" height="40" as="alternateBounds" />
          </mxGeometry>
        </mxCell>
        <mxCell id="W_2epq7IKHOyBFfJu-2j-64" value="" style="shape=partialRectangle;html=1;whiteSpace=wrap;connectable=0;strokeColor=inherit;overflow=hidden;fillColor=none;top=0;left=0;bottom=0;right=0;pointerEvents=1;swimlaneFillColor=#FFFFFF;" vertex="1" parent="W_2epq7IKHOyBFfJu-2j-61">
          <mxGeometry x="486" width="243" height="40" as="geometry">
            <mxRectangle width="243" height="40" as="alternateBounds" />
          </mxGeometry>
        </mxCell>
        <mxCell id="W_2epq7IKHOyBFfJu-2j-65" value="" style="shape=tableRow;horizontal=0;startSize=0;swimlaneHead=0;swimlaneBody=0;strokeColor=inherit;top=0;left=0;bottom=0;right=0;collapsible=0;dropTarget=0;fillColor=none;points=[[0,0.5],[1,0.5]];portConstraint=eastwest;swimlaneFillColor=#FFFFFF;" vertex="1" parent="W_2epq7IKHOyBFfJu-2j-56">
          <mxGeometry y="80" width="729" height="40" as="geometry" />
        </mxCell>
        <mxCell id="W_2epq7IKHOyBFfJu-2j-66" value="Projekt" style="shape=partialRectangle;html=1;whiteSpace=wrap;connectable=0;strokeColor=#666666;overflow=hidden;fillColor=#f5f5f5;top=0;left=0;bottom=0;right=0;pointerEvents=1;fontColor=#333333;swimlaneFillColor=#FFFFFF;align=left;" vertex="1" parent="W_2epq7IKHOyBFfJu-2j-65">
          <mxGeometry width="243" height="40" as="geometry">
            <mxRectangle width="243" height="40" as="alternateBounds" />
          </mxGeometry>
        </mxCell>
        <mxCell id="W_2epq7IKHOyBFfJu-2j-67" value="" style="shape=partialRectangle;html=1;whiteSpace=wrap;connectable=0;strokeColor=#666666;overflow=hidden;fillColor=#f5f5f5;top=0;left=0;bottom=0;right=0;pointerEvents=1;fontColor=#333333;swimlaneFillColor=#FFFFFF;" vertex="1" parent="W_2epq7IKHOyBFfJu-2j-65">
          <mxGeometry x="243" width="243" height="40" as="geometry">
            <mxRectangle width="243" height="40" as="alternateBounds" />
          </mxGeometry>
        </mxCell>
        <mxCell id="W_2epq7IKHOyBFfJu-2j-68" value="" style="shape=partialRectangle;html=1;whiteSpace=wrap;connectable=0;strokeColor=#666666;overflow=hidden;fillColor=#f5f5f5;top=0;left=0;bottom=0;right=0;pointerEvents=1;fontColor=#333333;swimlaneFillColor=#FFFFFF;" vertex="1" parent="W_2epq7IKHOyBFfJu-2j-65">
          <mxGeometry x="486" width="243" height="40" as="geometry">
            <mxRectangle width="243" height="40" as="alternateBounds" />
          </mxGeometry>
        </mxCell>
        <mxCell id="W_2epq7IKHOyBFfJu-2j-69" value="" style="shape=tableRow;horizontal=0;startSize=0;swimlaneHead=0;swimlaneBody=0;strokeColor=inherit;top=0;left=0;bottom=0;right=0;collapsible=0;dropTarget=0;fillColor=none;points=[[0,0.5],[1,0.5]];portConstraint=eastwest;swimlaneFillColor=#FFFFFF;" vertex="1" parent="W_2epq7IKHOyBFfJu-2j-56">
          <mxGeometry y="120" width="729" height="40" as="geometry" />
        </mxCell>
        <mxCell id="W_2epq7IKHOyBFfJu-2j-70" value="..." style="shape=partialRectangle;html=1;whiteSpace=wrap;connectable=0;strokeColor=inherit;overflow=hidden;fillColor=none;top=0;left=0;bottom=0;right=0;pointerEvents=1;swimlaneFillColor=#FFFFFF;align=left;" vertex="1" parent="W_2epq7IKHOyBFfJu-2j-69">
          <mxGeometry width="243" height="40" as="geometry">
            <mxRectangle width="243" height="40" as="alternateBounds" />
          </mxGeometry>
        </mxCell>
        <mxCell id="W_2epq7IKHOyBFfJu-2j-71" value="" style="shape=partialRectangle;html=1;whiteSpace=wrap;connectable=0;strokeColor=inherit;overflow=hidden;fillColor=none;top=0;left=0;bottom=0;right=0;pointerEvents=1;swimlaneFillColor=#FFFFFF;" vertex="1" parent="W_2epq7IKHOyBFfJu-2j-69">
          <mxGeometry x="243" width="243" height="40" as="geometry">
            <mxRectangle width="243" height="40" as="alternateBounds" />
          </mxGeometry>
        </mxCell>
        <mxCell id="W_2epq7IKHOyBFfJu-2j-72" value="" style="shape=partialRectangle;html=1;whiteSpace=wrap;connectable=0;strokeColor=inherit;overflow=hidden;fillColor=none;top=0;left=0;bottom=0;right=0;pointerEvents=1;swimlaneFillColor=#FFFFFF;" vertex="1" parent="W_2epq7IKHOyBFfJu-2j-69">
          <mxGeometry x="486" width="243" height="40" as="geometry">
            <mxRectangle width="243" height="40" as="alternateBounds" />
          </mxGeometry>
        </mxCell>
        <mxCell id="W_2epq7IKHOyBFfJu-2j-73" value="" style="shape=image;html=1;verticalAlign=top;verticalLabelPosition=bottom;labelBackgroundColor=#ffffff;imageAspect=0;aspect=fixed;image=https://icons.diagrams.net/icon-cache1/Material_Core-2642/create-1100.svg;sketch=1;curveFitting=1;jiggle=2;fontColor=#008CFF;strokeColor=#008CFF;" vertex="1" parent="1">
          <mxGeometry x="738.4499999999998" y="1045" width="18" height="18" as="geometry" />
        </mxCell>
        <mxCell id="W_2epq7IKHOyBFfJu-2j-74" value="" style="shape=image;html=1;verticalAlign=top;verticalLabelPosition=bottom;labelBackgroundColor=#ffffff;imageAspect=0;aspect=fixed;image=https://icons.diagrams.net/icon-cache1/Material_Core-2642/create-1100.svg;sketch=1;curveFitting=1;jiggle=2;fontColor=#008CFF;strokeColor=#008CFF;" vertex="1" parent="1">
          <mxGeometry x="736" y="1125" width="18" height="18" as="geometry" />
        </mxCell>
        <mxCell id="W_2epq7IKHOyBFfJu-2j-75" value="" style="shape=image;html=1;verticalAlign=top;verticalLabelPosition=bottom;labelBackgroundColor=#ffffff;imageAspect=0;aspect=fixed;image=https://icons.diagrams.net/icon-cache1/Material_Core-2642/create-1100.svg;sketch=1;curveFitting=1;jiggle=2;fontColor=#008CFF;strokeColor=#008CFF;" vertex="1" parent="1">
          <mxGeometry x="736" y="1085" width="18" height="18" as="geometry" />
        </mxCell>
        <mxCell id="W_2epq7IKHOyBFfJu-2j-76" value="" style="shape=image;html=1;verticalAlign=top;verticalLabelPosition=bottom;labelBackgroundColor=#ffffff;imageAspect=0;aspect=fixed;image=https://icons.diagrams.net/icon-cache1/Material_Core-2642/create-1100.svg;sketch=1;curveFitting=1;jiggle=2;fontColor=#008CFF;strokeColor=#008CFF;" vertex="1" parent="1">
          <mxGeometry x="736" y="1165" width="18" height="18" as="geometry" />
        </mxCell>
        <mxCell id="W_2epq7IKHOyBFfJu-2j-77" value="Freigabe" style="text;html=1;align=center;verticalAlign=middle;whiteSpace=wrap;rounded=0;fontStyle=1" vertex="1" parent="1">
          <mxGeometry x="850" y="995" width="70" height="34" as="geometry" />
        </mxCell>
        <mxCell id="W_2epq7IKHOyBFfJu-2j-78" value="" style="html=1;verticalLabelPosition=bottom;align=center;labelBackgroundColor=#ffffff;verticalAlign=top;strokeWidth=2;strokeColor=#CCCCCC;shadow=0;dashed=0;shape=mxgraph.ios7.icons.eye;" vertex="1" parent="1">
          <mxGeometry x="870" y="1045" width="30" height="14.1" as="geometry" />
        </mxCell>
        <mxCell id="W_2epq7IKHOyBFfJu-2j-79" value="" style="html=1;verticalLabelPosition=bottom;align=center;labelBackgroundColor=#ffffff;verticalAlign=top;strokeWidth=2;strokeColor=#CCCCCC;shadow=0;dashed=0;shape=mxgraph.ios7.icons.eye;" vertex="1" parent="1">
          <mxGeometry x="870" y="1165" width="30" height="14.1" as="geometry" />
        </mxCell>
        <mxCell id="W_2epq7IKHOyBFfJu-2j-80" value="" style="html=1;verticalLabelPosition=bottom;align=center;labelBackgroundColor=#ffffff;verticalAlign=top;strokeWidth=2;strokeColor=#CCCCCC;shadow=0;dashed=0;shape=mxgraph.ios7.icons.eye;" vertex="1" parent="1">
          <mxGeometry x="870" y="1086.95" width="30" height="14.1" as="geometry" />
        </mxCell>
        <mxCell id="W_2epq7IKHOyBFfJu-2j-81" value="" style="html=1;verticalLabelPosition=bottom;align=center;labelBackgroundColor=#ffffff;verticalAlign=top;strokeWidth=2;strokeColor=#CCCCCC;shadow=0;dashed=0;shape=mxgraph.ios7.icons.eye;" vertex="1" parent="1">
          <mxGeometry x="870" y="1125" width="30" height="14.1" as="geometry" />
        </mxCell>
        <mxCell id="W_2epq7IKHOyBFfJu-2j-82" value="" style="endArrow=none;html=1;rounded=0;entryX=0.927;entryY=0.075;entryDx=0;entryDy=0;entryPerimeter=0;exitX=0.167;exitY=1.067;exitDx=0;exitDy=0;exitPerimeter=0;strokeWidth=4;strokeColor=#CCCCCC;" edge="1" parent="1" source="W_2epq7IKHOyBFfJu-2j-80" target="W_2epq7IKHOyBFfJu-2j-61">
          <mxGeometry width="50" height="50" relative="1" as="geometry">
            <mxPoint x="860" y="1119" as="sourcePoint" />
            <mxPoint x="890" y="1085" as="targetPoint" />
          </mxGeometry>
        </mxCell>
        <mxCell id="W_2epq7IKHOyBFfJu-2j-84" value="&lt;font style=&quot;font-size: 15px;&quot;&gt;Neuer Fragebogen&lt;/font&gt;" style="strokeWidth=1;shadow=0;dashed=0;align=center;html=1;shape=mxgraph.mockup.buttons.button;strokeColor=#666666;fontColor=#ffffff;mainText=;buttonStyle=round;fontSize=17;fontStyle=1;fillColor=#008cff;whiteSpace=wrap;" vertex="1" parent="1">
          <mxGeometry x="210.5" y="945" width="129" height="40" as="geometry" />
        </mxCell>
        <mxCell id="W_2epq7IKHOyBFfJu-2j-85" value="" style="endArrow=none;html=1;rounded=0;strokeWidth=1;" edge="1" parent="1">
          <mxGeometry width="50" height="50" relative="1" as="geometry">
            <mxPoint x="190" y="915" as="sourcePoint" />
            <mxPoint x="970" y="915" as="targetPoint" />
          </mxGeometry>
        </mxCell>
        <mxCell id="W_2epq7IKHOyBFfJu-2j-86" value="&lt;font style=&quot;font-size: 18px;&quot; face=&quot;Verdana&quot;&gt;&lt;b&gt;Fragebögen&lt;/b&gt;&lt;/font&gt;" style="text;html=1;align=center;verticalAlign=middle;whiteSpace=wrap;rounded=0;" vertex="1" parent="1">
          <mxGeometry x="210.5" y="865" width="60" height="30" as="geometry" />
        </mxCell>
        <mxCell id="W_2epq7IKHOyBFfJu-2j-87" value="Evaluationskoordinator" style="rounded=1;whiteSpace=wrap;html=1;" vertex="1" parent="1">
          <mxGeometry x="414" y="35" width="120" height="60" as="geometry" />
        </mxCell>
        <mxCell id="W_2epq7IKHOyBFfJu-2j-124" value="Key User Verwaltung" style="rounded=1;whiteSpace=wrap;html=1;" vertex="1" parent="1">
          <mxGeometry x="370" y="780" width="120" height="60" as="geometry" />
        </mxCell>
      </root>
    </mxGraphModel>
  </diagram>
</mxfile>
